#define minimize_width 16
#define minimize_height 16
#define minimize_x_hot 7
#define minimize_y_hot 7
static unsigned char minimize_bits[] = {
 0x00, 0x00, 0x00, 0x00, 0x00, 0x00, 0x00, 0x00, 0x00, 0x00, 0x00, 0x00,
 0x00, 0x00, 0x00, 0x00, 0x00, 0x00, 0x00, 0x00, 0x00, 0x00, 0xFC, 0x1F,
 0xFC, 0x1F, 0x00, 0x00, 0x00, 0x00, 0x00, 0x00 };
