#define vertmax_width 16
#define vertmax_height 16
#define vertmax_x_hot 7
#define vertmax_y_hot 7
static unsigned char vertmax_bits[] = {
 0x00, 0x00, 0x00, 0x00, 0xFC, 0x1F, 0xFC, 0x1F, 0x00, 0x00, 0x00, 0x00,
 0x00, 0x00, 0x00, 0x00, 0x00, 0x00, 0x00, 0x00, 0x00, 0x00, 0xFC, 0x1F,
 0xFC, 0x1F, 0x00, 0x00, 0x00, 0x00, 0x00, 0x00 };
