#define min_width 16
#define min_height 16
static char min_bits[] = {
  0x00, 0x00, 0x00, 0x00, 0x00, 0x00, 0x80, 0x00, 0x90, 0x04, 0xA0, 0x02, 
  0x00, 0x00, 0x38, 0x0E, 0x00, 0x00, 0xA0, 0x02, 0x90, 0x04, 0x80, 0x00, 
  0x00, 0x00, 0x00, 0x00, 0x00, 0x00, 0x00, 0x00, };
