#define max_toggled_width 16
#define max_toggled_height 16
static char max_toggled_bits[] = {
  0x00, 0x00, 0x00, 0x00, 0xFC, 0x03, 0x04, 0x02, 0x04, 0x02, 0xE4, 0x1F, 
  0x24, 0x12, 0x24, 0x12, 0x24, 0x12, 0xFC, 0x13, 0x20, 0x10, 0x20, 0x10, 
  0xE0, 0x1F, 0x00, 0x00, 0x00, 0x00, 0x00, 0x00, };
