/* XPM */
static char * hide_pressed_xpm[] = {
"20 25 4 1",
" 	c None",
".	c #AEAEA6",
"+	c #B8B8B1",
"@	c #C2C2BC",
"                    ",
"                    ",
"                    ",
"                    ",
"                    ",
"....................",
".++++++++++++++++++@",
".++++++++++++++++++@",
".++++++++++++++++++@",
".++++++++++++++++++@",
".++++++++++++++++++@",
".++++++++++++++++++@",
".++++++@@@@.+++++++@",
".++++++@+++.+++++++@",
".++++++@+++.+++++++@",
".++++++@+++.+++++++@",
".++++++@....+++++++@",
".++++++++++++++++++@",
".++++++++++++++++++@",
".++++++++++++++++++@",
".++++++++++++++++++@",
".++++++++++++++++++@",
".++++++++++++++++++@",
".++++++++++++++++++@",
".@@@@@@@@@@@@@@@@@@@"};
