#define resiz2_width 16
#define resiz2_height 16
#define resiz2_x_hot 7
#define resiz2_y_hot 7
static unsigned char resiz2_bits[] = {
 0x80, 0x18, 0x80, 0x18, 0x80, 0x18, 0x80, 0x18, 0x80, 0x18, 0x80, 0x18,
 0x80, 0x18, 0xFF, 0x18, 0x00, 0x19, 0x00, 0x1A, 0x00, 0x1C, 0xFF, 0x1F,
 0xFF, 0x1F, 0x00, 0x00, 0x00, 0x00, 0x00, 0x00 };
