#define twmtitle2_width 4
#define twmtitle2_height 18
static unsigned char twmtitle2_bits[] = {
 0x00, 0x00, 0x02, 0x00, 0x08, 0x00, 0x02, 0x00, 0x08, 0x00, 0x02, 0x00,
 0x08, 0x00, 0x02, 0x00, 0x08, 0x00 };
