/* XPM */
static char *image[] = {
"48 48 537 2",
"   c None",
"00 c #3d1e59",
"10 c #42205f",
"20 c #422061",
"30 c #422161",
"40 c #421f60",
"50 c #3f205e",
"60 c #3f205b",
"70 c #411e5d",
"80 c #431f5f",
"90 c #4f256d",
":0 c #5c2b7f",
";0 c #642f89",
"A0 c #68318d",
"B0 c #68328e",
"C0 c #65328a",
"D0 c #5d2f82",
"E0 c #522873",
"F0 c #482268",
"G0 c #412061",
"H0 c #3e1e59",
"I0 c #462165",
"J0 c #652d89",
"K0 c #7d38a5",
"L0 c #8f40bb",
"M0 c #864bb8",
"N0 c #7743a7",
"O0 c #663890",
"P0 c #4f2871",
"Q0 c #472268",
"R0 c #3c1e57",
"S0 c #4d246c",
"T0 c #7933a0",
"U0 c #923ebe",
"V0 c #7346a3",
"W0 c #57307c",
"X0 c #462266",
"Y0 c #462163",
"Z0 c #75329c",
"a0 c #933fbf",
"b0 c #854eb8",
"c0 c #714aa2",
"d0 c #512a75",
"e0 c #4b246c",
"f0 c #431f5e",
"g0 c #592778",
"h0 c #8f3bba",
"i0 c #9340bf",
"j0 c #9042be",
"k0 c #7d57b4",
"l0 c #613b8d",
"m0 c #4c256d",
"n0 c #452265",
"o0 c #411f5d",
"p0 c #6b2e90",
"q0 c #933ec0",
"r0 c #933fc0",
"s0 c #9142bf",
"t0 c #6d4a9f",
"u0 c #4e2570",
"v0 c #472369",
"w0 c #41205e",
"x0 c #73319a",
"y0 c #8e44bd",
"z0 c #894ab9",
"01 c #8954b9",
"11 c #996dc4",
"21 c #a884cc",
"31 c #b497d3",
"41 c #c0a8da",
"51 c #c3afdc",
"61 c #bea9d8",
"71 c #a387c9",
"81 c #8761b8",
"91 c #502672",
":1 c #49226a",
";1 c #411f5e",
"A1 c #703095",
"B1 c #943fc0",
"C1 c #9240bf",
"D1 c #945ac1",
"E1 c #af87d0",
"F1 c #c6abde",
"G1 c #d9c8e9",
"H1 c #eee6f5",
"I1 c #efe9f6",
"J1 c #cfbfe3",
"K1 c #b095d1",
"L1 c #916cbe",
"M1 c #7351a6",
"N1 c #4f2673",
"O1 c #42205e",
"P1 c #642c87",
"Q1 c #9340c0",
"R1 c #8e45bc",
"S1 c #8e49bd",
"T1 c #a977cd",
"U1 c #c9abdf",
"V1 c #eae0f3",
"W1 c #f3eef8",
"X1 c #d0bee3",
"Y1 c #b092d1",
"Z1 c #9067be",
"a1 c #6d4c9f",
"b1 c #4f2573",
"c1 c #3f1e5b",
"d1 c #4e256e",
"e1 c #913fbe",
"f1 c #9241bf",
"g1 c #8f43be",
"h1 c #924fbf",
"i1 c #bf9ada",
"j1 c #f1e9f7",
"k1 c #f3edf8",
"l1 c #c4aadc",
"m1 c #9c72c5",
"n1 c #613c8d",
"o1 c #41205f",
"p1 c #843aae",
"q1 c #9141bf",
"r1 c #9a5bc4",
"s1 c #efe6f6",
"t1 c #e3d7ee",
"u1 c #d4c2e5",
"v1 c #d5c5e6",
"w1 c #ddd1eb",
"x1 c #e2d9ee",
"y1 c #e8e0f1",
"z1 c #ece6f4",
"02 c #e3daee",
"12 c #dacfe9",
"22 c #c6b5de",
"32 c #ab93cf",
"42 c #8b6abd",
"52 c #7d62b7",
"62 c #542b79",
"72 c #4b246d",
"82 c #411f5f",
"92 c #642d87",
":2 c #9142be",
";2 c #9043be",
"A2 c #b285d2",
"B2 c #e2daee",
"C2 c #baa8d8",
"D2 c #8c6dbe",
"E2 c #6f50a4",
"F2 c #522778",
"G2 c #442060",
"H2 c #893fb6",
"I2 c #8f43bd",
"J2 c #a270c8",
"K2 c #c4a8dc",
"L2 c #ddcdeb",
"M2 c #eae1f3",
"N2 c #f4eff8",
"O2 c #f7f3fa",
"P2 c #fbf9fc",
"Q2 c #d4cae7",
"R2 c #947bc4",
"S2 c #562f80",
"T2 c #4c236f",
"U2 c #411e5e",
"V2 c #612e85",
"W2 c #8f44bd",
"X2 c #8e45bd",
"Y2 c #8a48bb",
"Z2 c #8351b6",
"a2 c #855fb8",
"b2 c #8f6dbe",
"c2 c #9a7bc5",
"d2 c #a48bcb",
"e2 c #baa7d8",
"f2 c #d2c6e5",
"g2 c #f3f0f8",
"h2 c #fcfcfe",
"i2 c #c0b3dd",
"j2 c #6e51a2",
"k2 c #532779",
"l2 c #43205f",
"m2 c #7e3da9",
"n2 c #8d45bc",
"o2 c #8c47bc",
"p2 c #864eb8",
"q2 c #7e54b3",
"r2 c #8260b8",
"s2 c #a892ce",
"t2 c #ece8f5",
"u2 c #cabfe2",
"v2 c #7e69b9",
"w2 c #55287b",
"x2 c #4b246a",
"y2 c #8d46bc",
"z2 c #8c47bb",
"03 c #8b48bb",
"13 c #884ab9",
"23 c #8153b5",
"33 c #9176c2",
"43 c #9c8bcb",
"53 c #633f91",
"63 c #4f2576",
"73 c #421f5d",
"83 c #612f86",
"93 c #8b47bb",
":3 c #8450b6",
";3 c #9c86c8",
"A3 c #bbafdb",
"B3 c #7055a5",
"C3 c #442162",
"D3 c #723a9d",
"E3 c #8a49ba",
"F3 c #894aba",
"G3 c #886ebe",
"H3 c #e7e2f2",
"I3 c #ac9fd3",
"J3 c #8172be",
"K3 c #7b68b6",
"L3 c #56287d",
"M3 c #442062",
"N3 c #7e43ac",
"O3 c #884bb9",
"P3 c #874cb9",
"Q3 c #9983c7",
"R3 c #eae6f3",
"S3 c #ece9f5",
"T3 c #8471bf",
"U3 c #57297e",
"V3 c #452163",
"W3 c #864ab7",
"X3 c #874cb8",
"Y3 c #9881c6",
"Z3 c #cfc5e5",
"a3 c #edeaf6",
"b3 c #9282c6",
"c3 c #5c3387",
"d3 c #472266",
"e3 c #864db8",
"f3 c #844fb7",
"g3 c #7e5db7",
"h3 c #805fb7",
"i3 c #8162b9",
"j3 c #9a83c7",
"k3 c #beb0dc",
"l3 c #e9e5f3",
"m3 c #cac2e3",
"n3 c #8675c0",
"o3 c #603a8e",
"p3 c #502675",
"q3 c #4a246a",
"r3 c #854eb7",
"s3 c #844fb6",
"t3 c #8252b5",
"u3 c #9579c4",
"v3 c #b4a1d5",
"w3 c #d3c8e6",
"x3 c #f5f3f9",
"y3 c #fefefe",
"z3 c #9c8dcb",
"04 c #512776",
"14 c #4a256b",
"24 c #8350b6",
"34 c #8251b6",
"44 c #8053b4",
"54 c #825fb8",
"64 c #beadda",
"74 c #f4f1f9",
"84 c #f7f5fa",
"94 c #dad4ec",
":4 c #b8add9",
";4 c #8e7cc4",
"A4 c #634093",
"B4 c #492268",
"C4 c #8251b5",
"D4 c #8152b5",
"E4 c #8054b4",
"F4 c #a590cd",
"G4 c #e1daee",
"H4 c #e2dcef",
"I4 c #b7aad8",
"J4 c #a797d0",
"K4 c #9d8ccb",
"L4 c #8e7ac4",
"M4 c #613c8f",
"N4 c #522777",
"O4 c #472267",
"P4 c #7d50b0",
"Q4 c #7e54b4",
"R4 c #7e55b3",
"S4 c #9f8bcb",
"T4 c #dcd4ec",
"U4 c #dcd6ec",
"V4 c #5d348a",
"W4 c #482267",
"X4 c #744aa5",
"Y4 c #7e55b4",
"Z4 c #7e56b4",
"a4 c #9c89ca",
"b4 c #d9d2eb",
"c4 c #fefeff",
"d4 c #d9d3eb",
"e4 c #9f90cd",
"f4 c #482369",
"g4 c #6b4399",
"h4 c #7e57b4",
"i4 c #7e5ab5",
"j4 c #9584c8",
"k4 c #d1c9e7",
"l4 c #8c7fc5",
"m4 c #8174bf",
"n4 c #7c71ba",
"o4 c #5a2a84",
"p4 c #462265",
"q4 c #5e3584",
"r4 c #7e58b5",
"s4 c #9686c8",
"t4 c #dedaee",
"u4 c #f5f4fa",
"v4 c #9e94ce",
"w4 c #5a2c83",
"x4 c #4f276f",
"y4 c #7e59b5",
"z4 c #7e5ab6",
"05 c #7e5bb6",
"15 c #7e5cb7",
"25 c #8063ba",
"35 c #816abd",
"45 c #816fbe",
"55 c #8272bf",
"65 c #e6e3f2",
"75 c #fafafd",
"85 c #a59dd3",
"95 c #664397",
":5 c #55297d",
";5 c #4b236b",
"A5 c #704ca3",
"B5 c #7e5cb6",
"C5 c #816dbc",
"D5 c #8f82c6",
"E5 c #eeecf6",
"F5 c #f8f8fc",
"G5 c #948ccb",
"H5 c #807ac0",
"I5 c #47246a",
"J5 c #5d3685",
"K5 c #805db7",
"L5 c #805eb7",
"M5 c #805fb8",
"N5 c #8061b9",
"O5 c #8979c1",
"P5 c #a296cf",
"Q5 c #bbb3dc",
"R5 c #d5d0ea",
"S5 c #fbfbfd",
"T5 c #cac7e5",
"U5 c #715ba9",
"V5 c #5a2b84",
"W5 c #4c236d",
"X5 c #7857ae",
"Y5 c #8060b8",
"Z5 c #8065ba",
"a5 c #856ebe",
"b5 c #ab9dd3",
"c5 c #c9c0e2",
"d5 c #d2cbe7",
"e5 c #dbd5ec",
"f5 c #e4e0f1",
"g5 c #f7f5fb",
"h5 c #bab7de",
"i5 c #827fc3",
"j5 c #5d3189",
"k5 c #53287b",
"l5 c #4a246c",
"m5 c #5e3888",
"n5 c #8061b8",
"o5 c #8062b9",
"p5 c #8a74c1",
"q5 c #e6e1f1",
"r5 c #eae9f5",
"s5 c #bbb8df",
"t5 c #847fc4",
"u5 c #725caa",
"v5 c #4d246f",
"w5 c #7353a7",
"x5 c #8063b9",
"y5 c #8064ba",
"z5 c #8165ba",
"06 c #8166bb",
"16 c #8168bc",
"26 c #c0b5de",
"36 c #fcfbfd",
"46 c #edebf6",
"56 c #d0cce8",
"66 c #c1bbe0",
"76 c #b5afdb",
"86 c #afa8d7",
"96 c #a7a1d4",
":6 c #9b94ce",
";6 c #8b85c7",
"A6 c #7f79bf",
"B6 c #48236a",
"C6 c #532b78",
"D6 c #7c61b6",
"E6 c #8166ba",
"F6 c #8167bb",
"G6 c #816bbd",
"H6 c #ccc4e4",
"I6 c #dbd6ec",
"J6 c #a69bd2",
"K6 c #8d81c5",
"L6 c #8175bf",
"M6 c #8279c1",
"N6 c #8280c5",
"O6 c #654397",
"P6 c #592c82",
"Q6 c #4d2672",
"R6 c #5f3a89",
"S6 c #8067ba",
"T6 c #8168bb",
"U6 c #b3a7d7",
"V6 c #b7afdb",
"W6 c #8678c2",
"X6 c #7059a7",
"Y6 c #4f2674",
"Z6 c #654294",
"a6 c #8169bc",
"b6 c #816abc",
"c6 c #806bbc",
"d6 c #806cbc",
"e6 c #816dbd",
"f6 c #8573bf",
"g6 c #e9e6f4",
"h6 c #fefdfe",
"i6 c #f7f6fb",
"j6 c #f6f5fa",
"k6 c #eeedf7",
"l6 c #ebe9f5",
"m6 c #cdc9e7",
"n6 c #aaa4d5",
"o6 c #8982c6",
"p6 c #7563ae",
"q6 c #5b2b85",
"r6 c #502574",
"s6 c #674797",
"t6 c #806dbc",
"u6 c #816ebd",
"v6 c #8b7cc3",
"w6 c #cfc9e6",
"x6 c #f9f8fc",
"y6 c #ffffff",
"z6 c #fbfafd",
"07 c #dfdcef",
"17 c #c1bce0",
"27 c #a29bd2",
"37 c #867fc4",
"47 c #7663b0",
"57 c #5c2b86",
"67 c #522776",
"77 c #644192",
"87 c #7f6cbb",
"97 c #816fbd",
":7 c #8170be",
";7 c #8578c2",
"A7 c #9b90cc",
"B7 c #988ecb",
"C7 c #857ac2",
"D7 c #725ba9",
"E7 c #5b2a86",
"F7 c #512777",
"G7 c #5a3384",
"H7 c #7a66b4",
"I7 c #8171be",
"J7 c #8172bf",
"K7 c #8173bf",
"L7 c #8174c0",
"M7 c #8275c0",
"N7 c #8276c1",
"O7 c #837dc4",
"P7 c #807bc1",
"Q7 c #684699",
"R7 c #502775",
"S7 c #6b4d9d",
"T7 c #7f71bc",
"U7 c #8175c0",
"V7 c #8276c0",
"W7 c #8277c1",
"X7 c #827bc2",
"Y7 c #7461ae",
"Z7 c #5d2f89",
"a7 c #592b83",
"b7 c #53287a",
"c7 c #572c7f",
"d7 c #6d52a1",
"e7 c #7f72bc",
"f7 c #8278c1",
"g7 c #8279c2",
"h7 c #827ac2",
"i7 c #827bc3",
"j7 c #827cc3",
"k7 c #837dc3",
"l7 c #8380c5",
"m7 c #827ec3",
"n7 c #7560ad",
"o7 c #5f368d",
"p7 c #5b2c85",
"q7 c #53277b",
"r7 c #55297c",
"s7 c #56297d",
"t7 c #634193",
"u7 c #725ba8",
"v7 c #7d70ba",
"w7 c #827dc3",
"x7 c #837ec4",
"y7 c #837fc4",
"z7 c #8380c4",
"08 c #8381c5",
"18 c #807abf",
"28 c #7564af",
"38 c #6a4b9d",
"48 c #5c2e88",
"58 c #562980",
"68 c #582980",
"78 c #592d83",
"88 c #60388d",
"98 c #654395",
":8 c #68489b",
";8 c #694b9c",
"A8 c #674497",
"B8 c #633c92",
"C8 c #5c2f89",
"D8 c #5b2a85",
"E8 c #5a2b86",
"F8 c #57297f",
"G8 c #512678",
"H8 c #532778",
"I8 c #53277a",
"J8 c #54287a",
"K8 c #54287c",
"L8 c #54277b",
"                                                                                                ",
"                                          L8K8J8I8H8G8                                          ",
"                                  F8E8D8C8B8A8;8:89888786858G8                                  ",
"                            L8E84838281808080808z7y7x7w7v7u7t7s7r7                              ",
"                        q7p7o7n7m70808080808l7y7x7k7j7i7h7g7f7e7d7c7b7                          ",
"                      a7Z7Y7z7080808080808l7y7x7w7j7X7h7g7f7W7V7U7T7S7J8R7                      ",
"                    p7Q7P7080808080808l7y7x7O7j7i7h7g7f7W7N7M7L7K7J7I7H7G7F7                    ",
"                J8E7D708080808080808l7y7x7k7j7i7h7g7f7C7B7A7;7K7J7I7:797877767                  ",
"                574708080808080808z7y7x7w7j7X737271707z6y6y6x6w6v6:797u6t687s6r6                ",
"              q6p6080808080808l7y7x7k7j7o6n6m6l6k6j6i6h6y6y6y6y6g6f6e6d6c6b6a6Z6Y6              ",
"            q6X6080808080808l7y7x7k7j7X7h7g7f7W7V7M7L7W6V6y6y6y6y6U6d6c6b6a6T6S6R6Q6            ",
"          P6O6N60808080808z7y7x7w7j7X7h7M6f7W7V7U7L6K6J6I6y6y6y6y6H6G6b6a6T6F6E6D6C6B6          ",
"          48A608080808l7y7x7k7j7;6:69686766656074636y6y6y6y6y6y6y626a616F606z5y5x5w5v5          ",
"        q6u508080808l7y7x7t5s5r5y6y6y6y6y6y6y6y6y6y6y6y6y6y6y6y6q5p5T6F606z5y5x5o5n5m5l5        ",
"      k5j5i5080808z7y7x7w7h5y6y6y6y6y6y6y6y6y6y6y6g546f5e5d5c5b5a5T6F6E6Z5y5x5o5n5Y5X5W5        ",
"      V5U50808l7y7x7k7j7i7T5y6y6y6y6y6y6S5R5Q5P5O5u6e6d6c6b6a616F606z5y5x5o5N5Y5M5L5K5J5I5      ",
"      57H508l7y7x7w7j7X7h7G5F5y6y6y6y6E5D5I7:797u6C5d6c6b6a6T6F606z5y5x5o5n5Y5M5L5K5B5A5;5      ",
"    :59508z7y7x7w7j7X7h7M6W78575y6y6y6655545u6e6d6c635a616F606z5y525o5N5Y5M5L5K51505z4y4x4      ",
"    w4u5y7x7k7j7i7h7g7f7W7V7M7v4u4y6y6y6t4s4e6d6c6b6a616F606z5y5x5o5N5Y5M5L5K5B505z4y4r4q4p4    ",
"    o4n4x7w7j7X7h7g7f7W7V7U7m4K7l4R5y6y6y6h6k4j4b6a6T6F606z5y5x5o5n5Y5M5L5K5B505i4y4r4h4g4f4    ",
"    o4j7j7i7h7g7f7W7N7M7L7K7J7I7:745e4d4y6y6y6c4b4a406z5y525o5N5Y5M5L5K51505z4y4r4h4Z4Y4X4W4    ",
"    V4j7X7h7g7f7W7V7M7L7K7J7I7:797u6e6d6e4U4h6y6y6y6T4S4x5o5N5Y5M5L5K5B505z4y4r4h4Z4R4Q4P4O4    ",
"  N4M4X7h7M6f7W7V7U7m4K7J7I7:797u6t6d6L4K4J4I4H4c4y6y6y6G4F4n5M5L5K5B505i4y4r4h4Z4R4E4D4C4B4    ",
"  F7A4g7f7W7N7M7L7K7J7I7:745u6;4:49484y6y6y6y6y6y6y6y6y6y67464541505z4y4r4h4Z4Y4Q444D4342414    ",
"  04A4f7W7V7M7L7K7J7I7:797z3d4y3y6y6y6y6y6y6y6y6y6x3w3v3u3L5K5B505z4y4r4h4Z4R4Q444t324s3r3q3    ",
"  p3o3W7V7U7m4K7J7I7:7n3m3c4y6y6y6y6y6y6y6y6l3k3j3i3Y5h3L5g3B505i4y4r4h4Z4R444D4C424f3r3e3d3    ",
"    c3M7L7K7J7I7:745b3a3y6y6y6y6y6y6y6h6Z3Y3o5N5Y5M5L5K5B505z4y4r4h4Z4Y4Q444D43424r3e3X3W3V3    ",
"    U3K7K7J7I7:797T3S3y6y6y6y6y6y6y6R3Q3x5o5n5Y5M5L5K5B505z4y4r4h4Z4R4Q444C424f3r3e3P3O3N3M3    ",
"    L3K3J3I7:797u6I3y6y6y6y6y6y6y6H3G3x5o5n5Y5h3L5g3B505i4y4r4h4Z4R444D4C424f3r3X3O3F3E3D3C3    ",
"    r7B3:797u6e6d6A3y6y6y6y6y6y6y6;3o5N5Y5M5L5K5B505z4y4r4h4Z4Y4Q444D434:3r3e3X3O3F3E3938373    ",
"    635397u6t6d6c643y6y6y6y6y6y6y633n5Y5M5L5K5B505i4y4r4h4Z4R4Q423C424f3r3e3P313E303z2y2x2      ",
"      w2v2d6c6b6a616u2y6y6y6y6y6y6t2s2r2K51505z4y4r4h4Z4Y4q244D4C424f3p2X3O3F3E303o2n2m2l2      ",
"      k2j2c6b6a6T6F6F6i2h2y6y6y6y6y6y6g2f2e2d2c2b2a2Z4R4Q444D4Z2s3r3e3X3O3F3Y2z2y2X2W2V2U2      ",
"      T2S2a6a6T6F6E6Z5y5R2Q2h2y6y6y6y6y6y6y6y6y6y6y6y6y6P2O2O2N2M2L2K2J2E303z2y2X2I2H2G2        ",
"        F2E2F606z5y5x5o5N5Y5D2C2B2y3y6y6y6y6y6y6y6y6y6y6y6y6y6y6y6y6y6y6A2o2n2W2;2:29282        ",
"        726252z5y5x5o5N5Y5M5L5K5B54232221202z1y1x1w1v1v1u1t1y6y6y6y6y6s1r1X2W2;2q1p1o1          ",
"          Y6n1y5x5o5n5Y5M5L5g3B505i4y4r4h4Z4R4E4D4C4Z2m1l1k1y6y6y6j1i1h1X2g1:2f1e1d1c1          ",
"            b1a1N5Y5M5L5K51505z4y4r4h4Z4Y4Q444Z1Y1X1W1y6y6y6V1U1T1S1R1W2;2:2f1Q1P1O1            ",
"              N1M1M5L5K5B505z4y4r4h4Z4L1K1J1I1y6h6H1G1F1E1D103z2y2X2W2;2q1C1B1A1;1              ",
"              :191M1g3B505i4y4r4817161514131211101e3O3z0E303o2y2y0;2:2f1Q1B1x0w0                ",
"                v0u0t0z4y4r4h4Z4Y4Q444D434:3r3e3X3O3F3E393y2R1W2;2s0f1r0q0p0o0                  ",
"                  n0m0l0k0h4Z4R4Q423C424f3r3e3P3O3E303z2y2X2W2j0q1i0B1h0g0f0                    ",
"                      e0d0c0q244D4C424f3b0X3O3F3E303o2n2y0;2:2f1Q1a0Z0Y0o0                      ",
"                        X0B6W0V034s3r3e3X3O3F3E3z2y2X2W2;2s0C1U0T0S0o0R0                        ",
"                            p4Q0P0O0N0M0z0E303z2y2X2W2j0L0K0J0I0w0H0                            ",
"                                G0d3I0F0E0D0C0B0A0;0:090G28070                                  ",
"                                        605040302010H000                                        ",
"                                                                                                "};
