/* XPM */
static char * bottom_left_active_xpm[] = {
"26 26 4 1",
" 	c None",
".	c #8888CC",
"+	c #3A3A3A",
"@	c #666666",
"....+                     ",
"....+                     ",
"....+                     ",
"....+                     ",
"....+                     ",
"....+                     ",
"....+                     ",
"....+                     ",
"....+                     ",
"....+                     ",
"....+                     ",
"....+                     ",
"....+                     ",
"....+                     ",
"....+                     ",
"....+                     ",
"....+                     ",
"....+                     ",
"....+                     ",
"....+                     ",
"....+                     ",
"....@@@@@@@@@@@@@@@@@@@@+@",
"..........................",
"..........................",
"..........................",
".........................."};
