/* XPM */
static char * bottom_right_active_xpm[] = {
"26 26 3 1",
" 	c None",
".	c #666666",
"+	c #8888CC",
"                     .++++",
"                     .++++",
"                     .++++",
"                     .++++",
"                     .++++",
"                     .++++",
"                     .++++",
"                     .++++",
"                     .++++",
"                     .++++",
"                     .++++",
"                     .++++",
"                     .++++",
"                     .++++",
"                     .++++",
"                     .++++",
"                     .++++",
"                     .++++",
"                     .++++",
"                     .++++",
"                     .++++",
"......................++++",
"++++++++++++++++++++++++++",
"++++++++++++++++++++++++++",
"++++++++++++++++++++++++++",
"++++++++++++++++++++++++++"};
