/* XPM */
static char * top_left_active_xpm[] = {
"5 26 2 1",
" 	c #8888CC",
".	c #3A3A3A",
"     ",
"     ",
"     ",
"     ",
"    .",
"    .",
"    .",
"    .",
"    .",
"    .",
"    .",
"    .",
"    .",
"    .",
"    .",
"    .",
"    .",
"    .",
"    .",
"    .",
"    .",
"    .",
"    .",
"    .",
"    .",
"    ."};
