/* XPM */
static char * left_active_xpm[] = {
"5 5 2 1",
" 	c #8888CC",
".	c #3A3A3A",
"    .",
"    .",
"    .",
"    .",
"    ."};
