/* XPM */
static char * title_3_active_xpm[] = {
"5 25 4 1",
" 	c #8888CC",
".	c #3A3A3A",
"+	c #666666",
"@	c #515151",
"     ",
"     ",
"     ",
"     ",
".....",
"+++++",
"@@@@@",
"@@@@@",
"@@@@@",
"@@@@@",
"@@@@@",
"@@@@@",
"@@@@@",
"@@@@@",
"@@@@@",
"@@@@@",
"@@@@@",
"@@@@@",
"@@@@@",
"@@@@@",
"@@@@@",
"@@@@@",
"@@@@@",
"@@@@@",
"....."};
