/* XPM */
static char * maximize_toggled_pressed_xpm[] = {
"20 25 4 1",
" 	c None",
".	c #454545",
"+	c #494949",
"@	c #4D4D4D",
"                    ",
"                    ",
"                    ",
"                    ",
"                    ",
"....................",
".++++++++++++++++++@",
".++++++++++++++++++@",
".++++++++++++++++++@",
".+++..........@++++@",
".+++.+++++++++@++++@",
".+++.+++++++++@++++@",
".+++.+++++++++@++++@",
".+++.+++++++++@++++@",
".+++.+++++++++@++++@",
".+++.+++++++++@++++@",
".+++.+++++++++@++++@",
".+++.+++++++++@++++@",
".+++.+++++++++@++++@",
".+++.@@@@@@@@@@++++@",
".++++++++++++++++++@",
".++++++++++++++++++@",
".++++++++++++++++++@",
".++++++++++++++++++@",
".@@@@@@@@@@@@@@@@@@@"};
