/* XPM */
static char * title_4_active_xpm[] = {
"5 25 4 1",
" 	c #8888CC",
".	c #666666",
"+	c #515151",
"@	c #3A3A3A",
"     ",
".....",
"+++++",
"+++++",
"@@@@@",
".....",
"++++@",
"++++@",
"++++@",
"++++@",
"++++@",
"++++@",
"++++@",
"++++@",
"++++@",
"++++@",
"++++@",
"++++@",
"++++@",
"++++@",
"++++@",
"++++@",
"++++@",
"++++@",
"@@@@@"};
