/* XPM */
static char * bottom_right_active_xpm[] = {
"26 26 5 1",
" 	c None",
".	c #666666",
"+	c #3A3A3A",
"@	c #8888CC",
"#	c #515151",
"                     .++@@",
"                     ...@@",
"                     .##@@",
"                     .##@@",
"                     .##@@",
"                     .##@@",
"                     .##@@",
"                     .##@@",
"                     .##@@",
"                     .##@@",
"                     .##@@",
"                     .##@@",
"                     .##@@",
"                     .##@@",
"                     .##@@",
"                     .##@@",
"                     .##@@",
"                     .##@@",
"                     .##@@",
"                     .##@@",
"                     .##@@",
"......................##@@",
"+.######################@@",
"+.######################@@",
"@@@@@@@@@@@@@@@@@@@@@@@@@@",
"@@@@@@@@@@@@@@@@@@@@@@@@@@"};
