/* XPM */
static char * top_right_active_xpm[] = {
"5 26 4 1",
" 	c #8888CC",
".	c #515151",
"+	c #666666",
"@	c #3A3A3A",
"     ",
"     ",
"...  ",
"...  ",
"+..  ",
"+..  ",
"+..  ",
"+..  ",
"+..  ",
"+..  ",
"+..  ",
"+..  ",
"+..  ",
"+..  ",
"+..  ",
"+..  ",
"+..  ",
"+..  ",
"+..  ",
"+..  ",
"+..  ",
"+..  ",
"+..  ",
"+..  ",
"+@@  ",
"+++  "};
