#define max_toggled_width 7
#define max_toggled_height 7
static unsigned char max_toggled_bits[] = {
   0x00, 0x08, 0x00, 0x2a, 0x04, 0x0a, 0x00 };
