/* XPM */
static char * menu_inactive_xpm[] = {
"20 25 4 1",
" 	c None",
".	c #444444",
"+	c #363636",
"@	c #272727",
"                    ",
"                    ",
"                    ",
"                    ",
"                    ",
"....................",
".++++++++++++++++++@",
".++++++++++++++++++@",
".++++++++++++++++++@",
".++++++++++++++++++@",
".++++++++++++++++++@",
".++++++++++++++++++@",
".++............@+++@",
".++.+++++++++++@+++@",
".++.+++++++++++@+++@",
".++.+++++++++++@+++@",
".++.@@@@@@@@@@@@+++@",
".++++++++++++++++++@",
".++++++++++++++++++@",
".++++++++++++++++++@",
".++++++++++++++++++@",
".++++++++++++++++++@",
".++++++++++++++++++@",
".++++++++++++++++++@",
".@@@@@@@@@@@@@@@@@@@"};
