/* XPM */
static char * title_2_inactive_xpm[] = {
"5 25 3 1",
" 	c #444444",
".	c #363636",
"+	c #272727",
"     ",
"     ",
".....",
".....",
"+++++",
"     ",
" ....",
" ....",
" ....",
" ....",
" ....",
" ....",
" ....",
" ....",
" ....",
" ....",
" ....",
" ....",
" ....",
" ....",
" ....",
" ....",
" ....",
" ....",
" ++++"};
