/* XPM */
static char * top_right_active_xpm[] = {
"5 26 3 1",
" 	c #666666",
".	c #3A3A3A",
"+	c #515151",
"     ",
"    .",
"+++..",
"+++..",
" ++..",
" ++..",
" ++..",
" ++..",
" ++..",
" ++..",
" ++..",
" ++..",
" ++..",
" ++..",
" ++..",
" ++..",
" ++..",
" ++..",
" ++..",
" ++..",
" ++..",
" ++..",
" ++..",
" ++..",
" ....",
"    ."};
