/* XPM */
static char * hide_active_xpm[] = {
"20 25 5 1",
" 	c None",
".	c #8888CC",
"+	c #666666",
"@	c #515151",
"#	c #3A3A3A",
"....................",
"....................",
"                    ",
"                    ",
"                    ",
"++++++++++++++++++++",
"+@@@@@@@@@@@@@@@@@@#",
"+@@@@@@@@@@@@@@@@@@#",
"+@@@@@@@@@@@@@@@@@@#",
"+@@@@@@@@@@@@@@@@@@#",
"+@@@@@@@@@@@@@@@@@@#",
"+@@@@@@@@@@@@@@@@@@#",
"+@@@@@@++++#@@@@@@@#",
"+@@@@@@+@@@#@@@@@@@#",
"+@@@@@@+@@@#@@@@@@@#",
"+@@@@@@+@@@#@@@@@@@#",
"+@@@@@@+####@@@@@@@#",
"+@@@@@@@@@@@@@@@@@@#",
"+@@@@@@@@@@@@@@@@@@#",
"+@@@@@@@@@@@@@@@@@@#",
"+@@@@@@@@@@@@@@@@@@#",
"+@@@@@@@@@@@@@@@@@@#",
"+@@@@@@@@@@@@@@@@@@#",
"+@@@@@@@@@@@@@@@@@@#",
"+###################"};
