/* XPM */
static char * bottom_active_xpm[] = {
"5 5 2 1",
" 	c #666666",
".	c #8888CC",
"     ",
".....",
".....",
".....",
"....."};
